# xmcd
#
# Track frame offsets: 
#        150
#        17188
#        35173
#        55718
#
# Disc length: 1030 seconds
#
# Revision: 2
# Processed by: cddbd v1.5.2PL0 Copyright (c) Steve Scherf et al.
# Submitted via: ExactAudioCopy v0.99pb4
#
DISCID=2e040404
DTITLE=Dijk, De and The Scene - De Wereld Is Van Iedereen
DYEAR=1993
DGENRE=Rock
TTITLE0=Iedereen Is Van De Wereld
TTITLE1=Nieuwe Laarzen
TTITLE2=Iedereen Is Van De Wereld (Live)
TTITLE3=Nieuwe Laarzen (Live)
EXTD=
EXTT0=
EXTT1=
EXTT2=
EXTT3=
PLAYORDER=
